if (_typeface_js && _typeface_js.loadFace) _typeface_js.loadFace({"glyphs":{"0":{"ha":814,"x_min":0,"x_max":746,"o":"m 0 746 l 746 746 l 746 0 l 0 0 l 0 746 m 203 543 l 203 203 l 543 203 l 543 543 l 203 543 z "},"1":{"ha":407,"x_min":0,"x_max":339,"o":"m 339 0 l 136 0 l 136 543 l 0 543 l 0 746 l 339 746 l 339 0 z "},"2":{"ha":814,"x_min":0,"x_max":746,"o":"m 543 543 l 0 543 l 0 746 l 746 746 l 746 271 l 203 271 l 203 203 l 746 203 l 746 0 l 0 0 l 0 475 l 543 475 l 543 543 z "},"3":{"ha":814,"x_min":0,"x_max":746,"o":"m 543 543 l 0 543 l 0 746 l 746 746 l 746 0 l 0 0 l 0 203 l 543 203 l 543 271 l 0 271 l 0 475 l 543 475 l 543 543 z "},"4":{"ha":814,"x_min":0,"x_max":746,"o":"m 0 746 l 203 746 l 203 339 l 475 339 l 475 746 l 678 746 l 678 339 l 746 339 l 746 136 l 678 136 l 678 0 l 475 0 l 475 136 l 0 136 l 0 746 z "},"5":{"ha":814,"x_min":0,"x_max":746,"o":"m 746 746 l 746 543 l 203 543 l 203 475 l 746 475 l 746 0 l 0 0 l 0 203 l 543 203 l 543 271 l 0 271 l 0 746 l 746 746 z "},"6":{"ha":814,"x_min":0,"x_max":746,"o":"m 746 746 l 746 543 l 203 543 l 203 475 l 746 475 l 746 0 l 0 0 l 0 746 l 746 746 m 203 203 l 543 203 l 543 271 l 203 271 l 203 203 z "},"7":{"ha":814,"x_min":-87,"x_max":833,"o":"m 833 746 l 182 0 l -87 0 l 386 543 l 0 543 l 0 746 l 833 746 z "},"8":{"ha":814,"x_min":0,"x_max":746,"o":"m 543 543 l 203 543 l 203 475 l 543 475 l 543 543 m 203 203 l 543 203 l 543 271 l 203 271 l 203 203 m 746 746 l 746 0 l 0 0 l 0 746 l 746 746 z "},"9":{"ha":814,"x_min":0,"x_max":746,"o":"m 0 0 l 0 203 l 543 203 l 543 271 l 0 271 l 0 746 l 746 746 l 746 0 l 0 0 m 543 543 l 203 543 l 203 475 l 543 475 l 543 543 z "},"\u0000":{"ha":0,"x_min":0,"x_max":0,"o":""}," ":{"ha":271,"x_min":0,"x_max":0,"o":""},"!":{"ha":271,"x_min":0,"x_max":203,"o":"m 203 0 l 0 0 l 0 203 l 203 203 l 203 0 m 203 271 l 0 271 l 0 746 l 203 746 l 203 271 z "},"\"":{"ha":543,"x_min":0,"x_max":475,"o":"m 203 407 l 0 407 l 0 746 l 203 746 l 203 407 m 475 407 l 271 407 l 271 746 l 475 746 l 475 407 z "},"#":{"ha":814,"x_min":0,"x_max":746,"o":"m 136 339 l 136 407 l 0 407 l 0 610 l 136 610 l 136 746 l 339 746 l 339 610 l 407 610 l 407 746 l 610 746 l 610 610 l 746 610 l 746 407 l 610 407 l 610 339 l 746 339 l 746 136 l 610 136 l 610 0 l 407 0 l 407 136 l 339 136 l 339 0 l 136 0 l 136 136 l 0 136 l 0 339 l 136 339 m 339 407 l 339 339 l 407 339 l 407 407 l 339 407 z "},"$":{"ha":814,"x_min":0,"x_max":746,"o":"m 271 746 l 271 882 l 475 882 l 475 746 l 746 746 l 746 543 l 203 543 l 203 475 l 746 475 l 746 0 l 475 0 l 475 -136 l 271 -136 l 271 0 l 0 0 l 0 203 l 543 203 l 543 271 l 0 271 l 0 746 l 271 746 z "},"%":{"ha":814,"x_min":-87,"x_max":833,"o":"m 833 746 l 182 0 l -87 0 l 564 746 l 833 746 m 746 0 l 543 0 l 543 203 l 746 203 l 746 0 m 203 543 l 0 543 l 0 746 l 203 746 l 203 543 z "},"&":{"ha":814,"x_min":0,"x_max":746,"o":"m 407 746 l 407 543 l 203 543 l 203 475 l 475 475 l 475 543 l 678 543 l 678 475 l 746 475 l 746 271 l 678 271 l 678 203 l 746 203 l 746 0 l 0 0 l 0 746 l 407 746 m 203 203 l 475 203 l 475 271 l 203 271 l 203 203 z "},"'":{"ha":271,"x_min":0,"x_max":203,"o":"m 203 407 l 0 407 l 0 746 l 203 746 l 203 407 z "},"(":{"ha":407,"x_min":0,"x_max":339,"o":"m 339 814 l 339 610 l 203 610 l 203 136 l 339 136 l 339 -68 l 0 -68 l 0 814 l 339 814 z "},")":{"ha":407,"x_min":0,"x_max":339,"o":"m 0 -68 l 0 136 l 136 136 l 136 610 l 0 610 l 0 814 l 339 814 l 339 -68 l 0 -68 z "},"*":{"ha":678,"x_min":-10,"x_max":621,"o":"m 407 264 l 407 136 l 203 136 l 203 264 l 92 200 l -10 376 l 102 441 l -10 505 l 92 682 l 203 617 l 203 746 l 407 746 l 407 617 l 519 682 l 621 505 l 509 441 l 621 376 l 519 200 l 407 264 z "},"+":{"ha":543,"x_min":0,"x_max":475,"o":"m 339 475 l 475 475 l 475 271 l 339 271 l 339 136 l 136 136 l 136 271 l 0 271 l 0 475 l 136 475 l 136 610 l 339 610 l 339 475 z "},",":{"ha":271,"x_min":0,"x_max":203,"o":"m 203 -136 l 0 -136 l 0 203 l 203 203 l 203 -136 z "},"-":{"ha":543,"x_min":0,"x_max":475,"o":"m 475 271 l 0 271 l 0 475 l 475 475 l 475 271 z "},".":{"ha":271,"x_min":0,"x_max":203,"o":"m 203 0 l 0 0 l 0 203 l 203 203 l 203 0 z "},"/":{"ha":814,"x_min":-87,"x_max":833,"o":"m 833 746 l 182 0 l -87 0 l 564 746 l 833 746 z "},":":{"ha":271,"x_min":0,"x_max":203,"o":"m 203 0 l 0 0 l 0 203 l 203 203 l 203 0 m 203 339 l 0 339 l 0 543 l 203 543 l 203 339 z "},";":{"ha":271,"x_min":0,"x_max":203,"o":"m 203 -136 l 0 -136 l 0 203 l 203 203 l 203 -136 m 203 339 l 0 339 l 0 543 l 203 543 l 203 339 z "},"<":{"ha":610,"x_min":-26,"x_max":569,"o":"m -26 373 l 299 746 l 569 746 l 243 373 l 569 0 l 299 0 l -26 373 z "},"=":{"ha":543,"x_min":0,"x_max":475,"o":"m 475 407 l 0 407 l 0 610 l 475 610 l 475 407 m 475 136 l 0 136 l 0 339 l 475 339 l 475 136 z "},">":{"ha":610,"x_min":-26,"x_max":569,"o":"m 569 373 l 243 0 l -26 0 l 299 373 l -26 746 l 243 746 l 569 373 z "},"?":{"ha":814,"x_min":0,"x_max":746,"o":"m 543 543 l 0 543 l 0 746 l 746 746 l 746 271 l 0 271 l 0 475 l 543 475 l 543 543 m 203 0 l 0 0 l 0 203 l 203 203 l 203 0 z "},"@":{"ha":814,"x_min":0,"x_max":746,"o":"m 203 203 l 746 203 l 746 0 l 0 0 l 0 746 l 746 746 l 746 271 l 271 271 l 271 475 l 543 475 l 543 543 l 203 543 l 203 203 z "},"A":{"ha":814,"x_min":0,"x_max":746,"o":"m 0 746 l 746 746 l 746 0 l 543 0 l 543 271 l 203 271 l 203 0 l 0 0 l 0 746 m 203 543 l 203 475 l 543 475 l 543 543 l 203 543 z "},"B":{"ha":814,"x_min":0,"x_max":833,"o":"m 203 543 l 203 475 l 327 475 l 386 543 l 203 543 m 203 271 l 203 203 l 386 203 l 327 271 l 203 271 m 0 746 l 833 746 l 508 373 l 833 0 l 0 0 l 0 746 z "},"C":{"ha":814,"x_min":0,"x_max":746,"o":"m 746 746 l 746 543 l 203 543 l 203 203 l 746 203 l 746 0 l 0 0 l 0 746 l 746 746 z "},"D":{"ha":814,"x_min":0,"x_max":746,"o":"m 0 746 l 746 746 l 746 68 l 0 -68 l 0 746 m 203 543 l 203 186 l 543 248 l 543 543 l 203 543 z "},"E":{"ha":814,"x_min":0,"x_max":746,"o":"m 746 543 l 0 543 l 0 746 l 746 746 l 746 543 m 746 271 l 0 271 l 0 475 l 746 475 l 746 271 m 746 0 l 0 0 l 0 203 l 746 203 l 746 0 z "},"F":{"ha":814,"x_min":0,"x_max":746,"o":"m 746 746 l 746 543 l 203 543 l 203 475 l 746 475 l 746 271 l 203 271 l 203 0 l 0 0 l 0 746 l 746 746 z "},"G":{"ha":814,"x_min":0,"x_max":746,"o":"m 746 746 l 746 543 l 203 543 l 203 203 l 543 203 l 543 271 l 271 271 l 271 475 l 746 475 l 746 0 l 0 0 l 0 746 l 746 746 z "},"H":{"ha":814,"x_min":0,"x_max":746,"o":"m 203 271 l 203 0 l 0 0 l 0 746 l 203 746 l 203 475 l 543 475 l 543 746 l 746 746 l 746 0 l 543 0 l 543 271 l 203 271 z "},"I":{"ha":271,"x_min":0,"x_max":203,"o":"m 203 0 l 0 0 l 0 746 l 203 746 l 203 0 z "},"J":{"ha":814,"x_min":0,"x_max":746,"o":"m 543 203 l 543 746 l 746 746 l 746 0 l 0 0 l 0 203 l 543 203 z "},"K":{"ha":814,"x_min":0,"x_max":833,"o":"m 0 746 l 203 746 l 203 475 l 327 475 l 564 746 l 833 746 l 508 373 l 833 0 l 564 0 l 327 271 l 203 271 l 203 0 l 0 0 l 0 746 z "},"L":{"ha":814,"x_min":0,"x_max":746,"o":"m 0 746 l 203 746 l 203 203 l 746 203 l 746 0 l 0 0 l 0 746 z "},"M":{"ha":814,"x_min":0,"x_max":746,"o":"m 203 543 l 203 0 l 0 0 l 0 746 l 746 746 l 746 0 l 543 0 l 543 543 l 475 543 l 475 0 l 271 0 l 271 543 l 203 543 z "},"N":{"ha":814,"x_min":0,"x_max":746,"o":"m 203 386 l 203 0 l 0 0 l 0 833 l 543 360 l 543 746 l 746 746 l 746 -87 l 203 386 z "},"O":{"ha":814,"x_min":0,"x_max":746,"o":"m 0 746 l 746 746 l 746 0 l 0 0 l 0 746 m 203 543 l 203 203 l 543 203 l 543 543 l 203 543 z "},"P":{"ha":814,"x_min":0,"x_max":746,"o":"m 543 543 l 203 543 l 203 475 l 543 475 l 543 543 m 746 746 l 746 271 l 203 271 l 203 0 l 0 0 l 0 746 l 746 746 z "},"Q":{"ha":814,"x_min":0,"x_max":746,"o":"m 0 746 l 746 746 l 746 0 l 475 0 l 475 -136 l 271 -136 l 271 0 l 0 0 l 0 746 m 203 543 l 203 203 l 543 203 l 543 543 l 203 543 z "},"R":{"ha":814,"x_min":0,"x_max":833,"o":"m 543 543 l 203 543 l 203 475 l 543 475 l 543 543 m 746 746 l 746 271 l 597 271 l 833 0 l 564 0 l 327 271 l 203 271 l 203 0 l 0 0 l 0 746 l 746 746 z "},"S":{"ha":814,"x_min":0,"x_max":746,"o":"m 746 746 l 746 543 l 203 543 l 203 475 l 746 475 l 746 0 l 0 0 l 0 203 l 543 203 l 543 271 l 0 271 l 0 746 l 746 746 z "},"T":{"ha":814,"x_min":0,"x_max":746,"o":"m 475 543 l 475 0 l 271 0 l 271 543 l 0 543 l 0 746 l 746 746 l 746 543 l 475 543 z "},"U":{"ha":814,"x_min":0,"x_max":746,"o":"m 0 746 l 203 746 l 203 203 l 543 203 l 543 746 l 746 746 l 746 0 l 0 0 l 0 746 z "},"V":{"ha":814,"x_min":0,"x_max":746,"o":"m 543 186 l 543 746 l 746 746 l 746 -68 l 0 68 l 0 746 l 203 746 l 203 248 l 543 186 z "},"W":{"ha":814,"x_min":0,"x_max":746,"o":"m 543 203 l 543 746 l 746 746 l 746 0 l 0 0 l 0 746 l 203 746 l 203 203 l 271 203 l 271 746 l 475 746 l 475 203 l 543 203 z "},"X":{"ha":814,"x_min":-87,"x_max":833,"o":"m 373 528 l 564 746 l 833 746 l 508 373 l 833 0 l 564 0 l 373 218 l 182 0 l -87 0 l 238 373 l -87 746 l 182 746 l 373 528 z "},"Y":{"ha":814,"x_min":-87,"x_max":833,"o":"m 271 335 l -87 746 l 182 746 l 373 528 l 564 746 l 833 746 l 475 335 l 475 0 l 271 0 l 271 335 z "},"Z":{"ha":814,"x_min":-87,"x_max":833,"o":"m 386 543 l 0 543 l 0 746 l 833 746 l 360 203 l 746 203 l 746 0 l -87 0 l 386 543 z "},"[":{"ha":407,"x_min":0,"x_max":339,"o":"m 339 814 l 339 610 l 203 610 l 203 136 l 339 136 l 339 -68 l 0 -68 l 0 814 l 339 814 z "},"\\":{"ha":814,"x_min":-87,"x_max":833,"o":"m -87 746 l 182 746 l 833 0 l 564 0 l -87 746 z "},"]":{"ha":407,"x_min":0,"x_max":339,"o":"m 0 -68 l 0 136 l 136 136 l 136 610 l 0 610 l 0 814 l 339 814 l 339 -68 l 0 -68 z "},"^":{"ha":271,"x_min":0,"x_max":203,"o":"m 203 407 l 0 407 l 0 746 l 203 746 l 203 407 z "},"_":{"ha":814,"x_min":0,"x_max":746,"o":"m 746 0 l 0 0 l 0 203 l 746 203 l 746 0 z "},"`":{"ha":271,"x_min":0,"x_max":203,"o":"m 203 407 l 0 407 l 0 746 l 203 746 l 203 407 z "},"a":{"ha":814,"x_min":0,"x_max":746,"o":"m 0 746 l 746 746 l 746 0 l 543 0 l 543 271 l 203 271 l 203 0 l 0 0 l 0 746 m 203 543 l 203 475 l 543 475 l 543 543 l 203 543 z "},"b":{"ha":814,"x_min":0,"x_max":833,"o":"m 203 543 l 203 475 l 327 475 l 386 543 l 203 543 m 203 271 l 203 203 l 386 203 l 327 271 l 203 271 m 0 746 l 833 746 l 508 373 l 833 0 l 0 0 l 0 746 z "},"c":{"ha":814,"x_min":0,"x_max":746,"o":"m 746 746 l 746 543 l 203 543 l 203 203 l 746 203 l 746 0 l 0 0 l 0 746 l 746 746 z "},"d":{"ha":814,"x_min":0,"x_max":746,"o":"m 0 746 l 746 746 l 746 68 l 0 -68 l 0 746 m 203 543 l 203 186 l 543 248 l 543 543 l 203 543 z "},"e":{"ha":814,"x_min":0,"x_max":746,"o":"m 746 543 l 0 543 l 0 746 l 746 746 l 746 543 m 746 271 l 0 271 l 0 475 l 746 475 l 746 271 m 746 0 l 0 0 l 0 203 l 746 203 l 746 0 z "},"f":{"ha":814,"x_min":0,"x_max":746,"o":"m 746 746 l 746 543 l 203 543 l 203 475 l 746 475 l 746 271 l 203 271 l 203 0 l 0 0 l 0 746 l 746 746 z "},"g":{"ha":814,"x_min":0,"x_max":746,"o":"m 746 746 l 746 543 l 203 543 l 203 203 l 543 203 l 543 271 l 271 271 l 271 475 l 746 475 l 746 0 l 0 0 l 0 746 l 746 746 z "},"h":{"ha":814,"x_min":0,"x_max":746,"o":"m 203 271 l 203 0 l 0 0 l 0 746 l 203 746 l 203 475 l 543 475 l 543 746 l 746 746 l 746 0 l 543 0 l 543 271 l 203 271 z "},"i":{"ha":271,"x_min":0,"x_max":203,"o":"m 203 0 l 0 0 l 0 746 l 203 746 l 203 0 z "},"j":{"ha":814,"x_min":0,"x_max":746,"o":"m 543 203 l 543 746 l 746 746 l 746 0 l 0 0 l 0 203 l 543 203 z "},"k":{"ha":814,"x_min":0,"x_max":833,"o":"m 0 746 l 203 746 l 203 475 l 327 475 l 564 746 l 833 746 l 508 373 l 833 0 l 564 0 l 327 271 l 203 271 l 203 0 l 0 0 l 0 746 z "},"l":{"ha":814,"x_min":0,"x_max":746,"o":"m 0 746 l 203 746 l 203 203 l 746 203 l 746 0 l 0 0 l 0 746 z "},"m":{"ha":814,"x_min":0,"x_max":746,"o":"m 203 543 l 203 0 l 0 0 l 0 746 l 746 746 l 746 0 l 543 0 l 543 543 l 475 543 l 475 0 l 271 0 l 271 543 l 203 543 z "},"n":{"ha":814,"x_min":0,"x_max":746,"o":"m 203 386 l 203 0 l 0 0 l 0 833 l 543 360 l 543 746 l 746 746 l 746 -87 l 203 386 z "},"o":{"ha":814,"x_min":0,"x_max":746,"o":"m 0 746 l 746 746 l 746 0 l 0 0 l 0 746 m 203 543 l 203 203 l 543 203 l 543 543 l 203 543 z "},"p":{"ha":814,"x_min":0,"x_max":746,"o":"m 543 543 l 203 543 l 203 475 l 543 475 l 543 543 m 746 746 l 746 271 l 203 271 l 203 0 l 0 0 l 0 746 l 746 746 z "},"q":{"ha":814,"x_min":0,"x_max":746,"o":"m 0 746 l 746 746 l 746 0 l 475 0 l 475 -136 l 271 -136 l 271 0 l 0 0 l 0 746 m 203 543 l 203 203 l 543 203 l 543 543 l 203 543 z "},"r":{"ha":814,"x_min":0,"x_max":833,"o":"m 543 543 l 203 543 l 203 475 l 543 475 l 543 543 m 746 746 l 746 271 l 597 271 l 833 0 l 564 0 l 327 271 l 203 271 l 203 0 l 0 0 l 0 746 l 746 746 z "},"s":{"ha":814,"x_min":0,"x_max":746,"o":"m 746 746 l 746 543 l 203 543 l 203 475 l 746 475 l 746 0 l 0 0 l 0 203 l 543 203 l 543 271 l 0 271 l 0 746 l 746 746 z "},"t":{"ha":814,"x_min":0,"x_max":746,"o":"m 475 543 l 475 0 l 271 0 l 271 543 l 0 543 l 0 746 l 746 746 l 746 543 l 475 543 z "},"u":{"ha":814,"x_min":0,"x_max":746,"o":"m 0 746 l 203 746 l 203 203 l 543 203 l 543 746 l 746 746 l 746 0 l 0 0 l 0 746 z "},"v":{"ha":814,"x_min":0,"x_max":746,"o":"m 543 186 l 543 746 l 746 746 l 746 -68 l 0 68 l 0 746 l 203 746 l 203 248 l 543 186 z "},"w":{"ha":814,"x_min":0,"x_max":746,"o":"m 543 203 l 543 746 l 746 746 l 746 0 l 0 0 l 0 746 l 203 746 l 203 203 l 271 203 l 271 746 l 475 746 l 475 203 l 543 203 z "},"x":{"ha":814,"x_min":-87,"x_max":833,"o":"m 373 528 l 564 746 l 833 746 l 508 373 l 833 0 l 564 0 l 373 218 l 182 0 l -87 0 l 238 373 l -87 746 l 182 746 l 373 528 z "},"y":{"ha":814,"x_min":-87,"x_max":833,"o":"m 271 335 l -87 746 l 182 746 l 373 528 l 564 746 l 833 746 l 475 335 l 475 0 l 271 0 l 271 335 z "},"z":{"ha":814,"x_min":-87,"x_max":833,"o":"m 386 543 l 0 543 l 0 746 l 833 746 l 360 203 l 746 203 l 746 0 l -87 0 l 386 543 z "},"{":{"ha":543,"x_min":0,"x_max":475,"o":"m 136 475 l 136 814 l 475 814 l 475 610 l 339 610 l 339 136 l 475 136 l 475 -68 l 136 -68 l 136 271 l 0 271 l 0 475 l 136 475 z "},"|":{"ha":271,"x_min":0,"x_max":203,"o":"m 203 0 l 0 0 l 0 746 l 203 746 l 203 0 z "},"}":{"ha":543,"x_min":0,"x_max":475,"o":"m 339 271 l 339 -68 l 0 -68 l 0 136 l 136 136 l 136 610 l 0 610 l 0 814 l 339 814 l 339 475 l 475 475 l 475 271 l 339 271 z "},"~":{"ha":543,"x_min":0,"x_max":475,"o":"m 475 271 l 0 271 l 0 475 l 475 475 l 475 271 z "}}}
